<svg xmlns="http://www.w3.org/2000/svg" width="22.675" height="19.929" viewBox="0 0 22.675 19.929">
  <g id="shopping-cart" transform="translate(0 0)">
    <path id="Контур_38" data-name="Контур 38" d="M7.305,13.286H19.353a.664.664,0,0,0,.639-.482l2.657-9.3a.664.664,0,0,0-.639-.847H5.773L5.3.52A.664.664,0,0,0,4.65,0H.664a.664.664,0,0,0,0,1.329H4.117l2.4,10.793a1.993,1.993,0,0,0,.792,3.821H19.353a.664.664,0,1,0,0-1.329H7.307a.664.664,0,0,1,0-1.328Zm13.824-9.3-2.278,7.972H7.84L6.069,3.986Zm0,0" transform="translate(0 0)" fill="#bf5f5f"/>
    <path id="Контур_39" data-name="Контур 39" d="M150,361.993A1.993,1.993,0,1,0,151.993,360,2,2,0,0,0,150,361.993Zm1.993-.664a.664.664,0,1,1-.664.664A.665.665,0,0,1,151.993,361.329Zm0,0" transform="translate(-143.357 -344.056)" fill="#bf5f5f"/>
    <path id="Контур_40" data-name="Контур 40" d="M362,361.993A1.993,1.993,0,1,0,363.993,360,2,2,0,0,0,362,361.993Zm1.993-.664a.664.664,0,1,1-.664.664A.665.665,0,0,1,363.993,361.329Zm0,0" transform="translate(-345.968 -344.056)" fill="#bf5f5f"/>
  </g>
</svg>
