<svg xmlns="http://www.w3.org/2000/svg" width="22.9" height="23" viewBox="0 0 22.9 23">
  <g id="whatsapp" transform="translate(0 0.001)">
    <path id="Контур_10" data-name="Контур 10" d="M.49,23a.489.489,0,0,1-.472-.619l1.5-5.46A11.4,11.4,0,1,1,11.5,22.81h0a11.427,11.427,0,0,1-5.277-1.3l-5.6,1.469A.492.492,0,0,1,.49,23Zm0,0" transform="translate(0 0)" fill="#9a9a9a"/>
    <path id="Контур_11" data-name="Контур 11" d="M10.894,32.916l1.548-5.654A10.915,10.915,0,1,1,21.9,32.727h0A10.906,10.906,0,0,1,16.681,31.4Zm6.054-3.493.331.2A9.06,9.06,0,0,0,21.9,30.884h0a9.071,9.071,0,1,0-7.685-4.251l.216.343-.917,3.347Zm0,0" transform="translate(-10.405 -10.406)" fill="#fff"/>
    <path id="Контур_12" data-name="Контур 12" d="M19.344,40.642l1.495-5.459a10.537,10.537,0,1,1,9.131,5.276h0a10.535,10.535,0,0,1-5.035-1.282Zm0,0" transform="translate(-18.475 -18.513)" fill="#64b161"/>
    <g id="Сгруппировать_4" data-name="Сгруппировать 4" transform="translate(0.49 0.489)">
      <path id="Контур_13" data-name="Контур 13" d="M10.894,32.916l1.548-5.654A10.915,10.915,0,1,1,21.9,32.727h0A10.906,10.906,0,0,1,16.681,31.4Zm6.054-3.493.331.2A9.06,9.06,0,0,0,21.9,30.884h0a9.071,9.071,0,1,0-7.685-4.251l.216.343-.917,3.347Zm0,0" transform="translate(-10.894 -10.895)" fill="#fff"/>
      <path id="Контур_14" data-name="Контур 14" d="M135.264,142.091c-.2-.454-.419-.463-.614-.471-.159-.007-.341-.007-.523-.007a1,1,0,0,0-.727.341,3.057,3.057,0,0,0-.955,2.275,5.3,5.3,0,0,0,1.114,2.821,11.194,11.194,0,0,0,4.659,4.117c2.3.909,2.773.728,3.273.682a2.754,2.754,0,0,0,1.841-1.3,2.277,2.277,0,0,0,.159-1.3c-.068-.114-.25-.182-.523-.318s-1.613-.8-1.864-.887-.432-.136-.614.137-.7.887-.863,1.069-.318.205-.591.069a7.457,7.457,0,0,1-2.193-1.354,8.217,8.217,0,0,1-1.517-1.889c-.159-.273,0-.407.12-.556a8.224,8.224,0,0,0,.682-.932.5.5,0,0,0-.023-.478C136.036,143.979,135.506,142.63,135.264,142.091Zm0,0" transform="translate(-126.985 -135.741)" fill="#fff" fill-rule="evenodd"/>
    </g>
  </g>
</svg>
