<svg xmlns="http://www.w3.org/2000/svg" width="21.703" height="20.688" viewBox="0 0 21.703 20.688">
  <g id="shopping-cart_1_" data-name="shopping-cart (1)" transform="translate(0 -10.67)">
    <g id="Сгруппировать_19" data-name="Сгруппировать 19" transform="translate(13.914 26.289)">
      <g id="Сгруппировать_18" data-name="Сгруппировать 18">
        <path id="Контур_34" data-name="Контур 34" d="M294.886,338.862a2.534,2.534,0,1,0,2.534,2.534A2.564,2.564,0,0,0,294.886,338.862Z" transform="translate(-292.352 -338.862)"/>
      </g>
    </g>
    <g id="Сгруппировать_21" data-name="Сгруппировать 21" transform="translate(0 10.67)">
      <g id="Сгруппировать_20" data-name="Сгруппировать 20" transform="translate(0 0)">
        <path id="Контур_35" data-name="Контур 35" d="M20.907,14.2c-.049,0-.122-.024-.195-.024H5.361l-.244-1.633A2.182,2.182,0,0,0,2.948,10.67H.975a.975.975,0,0,0,0,1.949H2.948a.259.259,0,0,1,.244.219L4.7,23.122a2.672,2.672,0,0,0,2.632,2.266H17.471A2.708,2.708,0,0,0,20.1,23.243l1.584-7.919A.963.963,0,0,0,20.907,14.2Z" transform="translate(0 -10.67)"/>
      </g>
    </g>
    <g id="Сгруппировать_23" data-name="Сгруппировать 23" transform="translate(5.286 26.289)">
      <g id="Сгруппировать_22" data-name="Сгруппировать 22">
        <path id="Контур_36" data-name="Контур 36" d="M116.019,341.274a2.519,2.519,0,0,0-2.51-2.412,2.549,2.549,0,0,0-2.437,2.632,2.5,2.5,0,0,0,2.485,2.412h.049A2.529,2.529,0,0,0,116.019,341.274Z" transform="translate(-111.07 -338.862)"/>
      </g>
    </g>
  </g>
</svg>
