<svg xmlns="http://www.w3.org/2000/svg" width="20.761" height="22.669" viewBox="0 0 20.761 22.669">
  <g id="viber_2_" data-name="viber (2)" transform="translate(-1.999 -0.663)">
    <path id="Контур_5" data-name="Контур 5" d="M21.929,13.11C22.6,7.422,21.6,3.832,19.8,2.208h0C16.889-.567,7.053-.977,3.569,2.331,2,3.95,1.454,6.325,1.393,9.265s-.132,8.452,5,9.947h0l0,2.283s-.035.925.556,1.111c.676.219.981-.21,3.083-2.721a19.231,19.231,0,0,0,6.52-.5c.71-.238,4.725-.769,5.374-6.279ZM10.381,18.279s-2.224,2.774-2.916,3.494c-.226.234-.475.212-.471-.252,0-.3.017-3.79.017-3.79-4.353-1.248-4.1-5.94-4.049-8.394s.5-4.467,1.821-5.821C7.84.649,16.462,1.29,18.659,3.355c2.686,2.381,1.73,9.108,1.735,9.337-.552,4.6-3.806,4.891-4.4,5.09a17.742,17.742,0,0,1-5.609.5Z" transform="translate(0.619 0.676)" fill="#8e24aa"/>
    <path id="Контур_6" data-name="Контур 6" d="M12.222,4.3a.3.3,0,0,0,0,.605c2.987.023,5.447,2.105,5.474,5.924a.293.293,0,1,0,.585-.005h0c-.032-4.115-2.718-6.5-6.058-6.524Z" fill="#8e24aa"/>
    <path id="Контур_7" data-name="Контур 7" d="M16.151,10.193a.293.293,0,1,0,.585.014,4.05,4.05,0,0,0-3.979-4.335.3.3,0,0,0-.041.605,3.452,3.452,0,0,1,3.435,3.716Z" fill="#8e24aa"/>
    <path id="Контур_8" data-name="Контур 8" d="M15.521,12.774a.924.924,0,0,0-1.2.173l-.435.563a.778.778,0,0,1-.634.248,5.8,5.8,0,0,1-3.82-3.951.841.841,0,0,1,.239-.656l.544-.45a1,1,0,0,0,.167-1.247A13,13,0,0,0,8.887,5.3a.8.8,0,0,0-1.082-.183H7.8c-.865.506-1.812,1.453-1.509,2.428.517,1.028,1.467,4.3,4.495,6.781a17.285,17.285,0,0,0,4.631,2.648l.009.014c.942.314,1.858-.67,2.347-1.561v-.007a.857.857,0,0,0-.172-1.106,11.789,11.789,0,0,0-2.076-1.542Z" fill="#8e24aa"/>
    <path id="Контур_9" data-name="Контур 9" d="M13.169,8.1c.961.056,1.427.558,1.477,1.589a.293.293,0,1,0,.585-.028A2.007,2.007,0,0,0,13.2,7.5a.3.3,0,0,0-.032.605Z" fill="#8e24aa"/>
  </g>
</svg>
