<svg xmlns="http://www.w3.org/2000/svg" width="310.134" height="44.154" viewBox="0 0 310.134 44.154">
  <path id="Контур_38" data-name="Контур 38" d="M37.488,46.952V49.79A13.58,13.58,0,0,1,36.1,56.225a9.14,9.14,0,0,1-4.092,3.96A21.384,21.384,0,0,1,26.1,62.1a44.82,44.82,0,0,1-7.623.561A119.986,119.986,0,0,1,3.3,61.472V53.618a116.6,116.6,0,0,0,15.312,1.716q8.58,0,8.58-4.422V48.14A4.452,4.452,0,0,0,26.07,45q-1.122-1.221-4.488-1.221H16.566q-14.124,0-14.124-11.22V29.4A8.842,8.842,0,0,1,7.1,21.179q4.653-2.673,14.883-2.673,4.95,0,13.4.858V27.02q-10.032-1.188-13.728-1.188-5.082,0-7,.858a2.967,2.967,0,0,0-1.914,2.9V32.63Q12.738,36,18.414,36h5.148q7.524,0,10.725,2.772T37.488,46.952Zm44.154-20.46H68.508V62h-10.3V26.492h-13.2V19.166h36.63Zm45.672,5.016V50.252a10.1,10.1,0,0,1-1.914,6.2,11.589,11.589,0,0,1-5.148,3.861,30.962,30.962,0,0,1-6.468,1.815,42.6,42.6,0,0,1-6.864.528,45.562,45.562,0,0,1-6.435-.429,34.137,34.137,0,0,1-6.4-1.617,11.307,11.307,0,0,1-5.412-3.828,10.461,10.461,0,0,1-2.013-6.534V31.508a11.358,11.358,0,0,1,5.049-9.636,18.755,18.755,0,0,1,5.049-2.145,29.426,29.426,0,0,1,5.28-1.023q2.31-.2,4.884-.2,2.64,0,4.983.2a29.37,29.37,0,0,1,5.313,1.023,19.308,19.308,0,0,1,5.082,2.145,10.8,10.8,0,0,1,3.564,3.795A11.336,11.336,0,0,1,127.314,31.508Zm-10.3,18.744V31.442a4.455,4.455,0,0,0-2.541-4.356,17.5,17.5,0,0,0-7.491-1.254,17.883,17.883,0,0,0-7.524,1.221,4.451,4.451,0,0,0-2.508,4.389v18.81a4.29,4.29,0,0,0,.858,2.739,4.67,4.67,0,0,0,2.475,1.551,18.916,18.916,0,0,0,3.1.627,40.742,40.742,0,0,0,7.326,0,18.114,18.114,0,0,0,3.069-.627,4.481,4.481,0,0,0,2.409-1.551A4.407,4.407,0,0,0,117.018,50.252ZM166.98,62H135.63V19.166h10.3V54.674H166.98Zm44.286-42.834L195.624,44.708V62h-10.3V44.84l-15.51-25.674H181.5l9.042,16.764,8.976-16.764ZM225.39,62h-10.3V52.892h10.3Zm42.768-16.17v6.6q0,5.346-4.29,7.458T251.13,62H233.31V19.166h17.358q9.108,0,12.342,2.046t3.234,7.128v5.28a4.993,4.993,0,0,1-1.452,3.432,7.091,7.091,0,0,1-3.3,2.112v.33a8.3,8.3,0,0,1,4.521,2.112A5.471,5.471,0,0,1,268.158,45.83ZM256.344,32.3V30.188a3.552,3.552,0,0,0-.99-2.9q-.99-.792-4.884-.792h-6.864v10.1h7.062q3.63,0,4.653-.924A4.427,4.427,0,0,0,256.344,32.3Zm1.518,18.744V47.612a4.1,4.1,0,0,0-1.221-3.366q-1.221-.99-4.323-.99h-8.712V54.674h7.326a12.028,12.028,0,0,0,5.346-.858A2.92,2.92,0,0,0,257.862,51.044Zm54.714-31.878L296.934,44.708V62h-10.3V44.84l-15.51-25.674H282.81l9.042,16.764,8.976-16.764Z" transform="translate(-2.442 -18.506)" fill="#fff"/>
</svg>
