<svg xmlns="http://www.w3.org/2000/svg" width="12.018" height="13.077" viewBox="0 0 12.018 13.077">
  <g id="А" transform="translate(-36.351)">
    <path id="Контур_17" data-name="Контур 17" d="M48.348,12.461,44.655.338A.477.477,0,0,0,44.2,0H40.521a.477.477,0,0,0-.457.338L36.372,12.461a.477.477,0,0,0,.457.616h2.638a.477.477,0,0,0,.465-.37L40.49,10.3H44.23l.558,2.407a.477.477,0,0,0,.465.37h2.638A.477.477,0,0,0,48.348,12.461ZM42.36,7.625H41.113l.221-.905c.322-1.247.644-2.837.966-4.144h.119c.322,1.308.644,2.9.966,4.144l.221.905Z"/>
  </g>
</svg>
