<svg width="21" height="18" viewBox="0 0 21 18" fill="none" xmlns="http://www.w3.org/2000/svg">
<path d="M6.485 11.72H17.072C17.1993 11.7202 17.3233 11.6788 17.4249 11.6021C17.5266 11.5254 17.6003 11.4175 17.635 11.295L19.979 3.095C20.0041 3.00781 20.0086 2.91598 19.9921 2.82675C19.9757 2.73753 19.9387 2.65336 19.8841 2.5809C19.8294 2.50844 19.7587 2.44968 19.6775 2.40926C19.5963 2.36884 19.5067 2.34786 19.416 2.348H5.132L4.713 0.459C4.6841 0.32883 4.61168 0.212408 4.50768 0.128957C4.40368 0.045506 4.27434 1.65078e-05 4.141 0L0.586 0C0.430583 0 0.281532 0.0617391 0.171635 0.171635C0.0617391 0.281532 0 0.430583 0 0.586C0 0.741417 0.0617391 0.890468 0.171635 1.00036C0.281532 1.11026 0.430583 1.172 0.586 1.172H3.671L5.787 10.694C5.41563 10.8544 5.11098 11.138 4.92448 11.497C4.73798 11.8559 4.68106 12.2683 4.76333 12.6643C4.8456 13.0604 5.06202 13.4159 5.37605 13.6709C5.69008 13.926 6.08248 14.0648 6.487 14.064H17.072C17.2274 14.064 17.3765 14.0023 17.4864 13.8924C17.5963 13.7825 17.658 13.6334 17.658 13.478C17.658 13.3226 17.5963 13.1735 17.4864 13.0636C17.3765 12.9537 17.2274 12.892 17.072 12.892H6.485C6.32958 12.892 6.18053 12.8303 6.07064 12.7204C5.96074 12.6105 5.899 12.4614 5.899 12.306C5.899 12.1506 5.96074 12.0015 6.07064 11.8916C6.18053 11.7817 6.32958 11.72 6.485 11.72Z" fill="#FA942D"/>
<path d="M5.89893 15.822C5.89972 16.1695 6.00349 16.509 6.19714 16.7976C6.3908 17.0862 6.66564 17.3109 6.98694 17.4433C7.30824 17.5758 7.66158 17.61 8.00234 17.5417C8.34309 17.4734 8.65597 17.3057 8.90143 17.0597C9.14689 16.8137 9.31393 16.5004 9.38144 16.1595C9.44895 15.8186 9.41389 15.4653 9.28072 15.1443C9.14754 14.8233 8.92221 14.549 8.6332 14.356C8.34418 14.163 8.00445 14.06 7.65692 14.06C7.4258 14.0603 7.19698 14.106 6.98355 14.1947C6.77012 14.2834 6.57626 14.4133 6.41301 14.5769C6.24977 14.7405 6.12034 14.9347 6.03214 15.1483C5.94393 15.3619 5.89866 15.5909 5.89893 15.822Z" fill="#FA942D"/>
<path d="M14.1379 15.822C14.1387 16.1693 14.2424 16.5087 14.4359 16.7972C14.6294 17.0857 14.904 17.3104 15.225 17.4429C15.5461 17.5755 15.8993 17.61 16.2399 17.542C16.5805 17.4741 16.8934 17.3067 17.139 17.0611C17.3847 16.8155 17.552 16.5026 17.62 16.162C17.6879 15.8213 17.6534 15.4682 17.5209 15.1471C17.3883 14.826 17.1636 14.5514 16.8751 14.3579C16.5866 14.1645 16.2473 14.0608 15.8999 14.06C15.6685 14.0597 15.4392 14.1051 15.2253 14.1936C15.0114 14.282 14.8171 14.4118 14.6534 14.5755C14.4898 14.7392 14.36 14.9335 14.2715 15.1474C14.1831 15.3613 14.1377 15.5905 14.1379 15.822Z" fill="#FA942D"/>
</svg>
