<svg width="17" height="17" viewBox="0 0 17 17" fill="none" xmlns="http://www.w3.org/2000/svg">
<path d="M0.000427752 12.2358C0.0046562 12.337 0.0396316 12.4346 0.100688 12.5154C0.161744 12.5962 0.245977 12.6565 0.34215 12.6882L3.32415 13.6725L4.30559 16.6572C4.33716 16.7534 4.39732 16.8378 4.47804 16.899C4.55875 16.9601 4.65619 16.9952 4.75735 16.9995C4.8585 17.0039 4.95857 16.9772 5.04419 16.9231C5.12982 16.869 5.19693 16.7901 5.23658 16.6969L8.42374 9.22351C8.46267 9.13196 8.47336 9.03084 8.45444 8.93317C8.43552 8.83549 8.38785 8.74572 8.31756 8.67536C8.24727 8.60501 8.15756 8.5573 8.05997 8.53836C7.96238 8.51942 7.86136 8.53011 7.7699 8.56908L0.302462 11.7557C0.209473 11.7955 0.130781 11.8627 0.0768344 11.9483C0.0228879 12.0339 -0.0037605 12.1339 0.000427752 12.2351V12.2358ZM1.90681 12.155L7.02389 9.9695L4.84373 15.0911L4.1946 13.1218C4.17022 13.0478 4.12887 12.9806 4.07384 12.9255C4.01882 12.8705 3.95166 12.8291 3.87776 12.8047L1.90681 12.155Z" fill="#BF1515"/>
<path d="M8.49917 12.7791C9.34626 12.7791 10.1743 12.5277 10.8787 12.0566C11.583 11.5856 12.1319 10.9161 12.4561 10.1328C12.7803 9.34948 12.8651 8.48756 12.6998 7.65601C12.5346 6.82446 12.1267 6.06063 11.5277 5.46112C10.9287 4.86161 10.1656 4.45334 9.33474 4.28793C8.50393 4.12253 7.64276 4.20741 6.86015 4.53187C6.07755 4.85632 5.40864 5.40577 4.93802 6.11072C4.4674 6.81568 4.21621 7.64448 4.21621 8.49232C4.21621 8.62454 4.16373 8.75135 4.07032 8.84485C3.9769 8.93835 3.8502 8.99087 3.71809 8.99087C3.58598 8.99087 3.45928 8.93835 3.36587 8.84485C3.27245 8.75135 3.21997 8.62454 3.21997 8.49232C3.21997 7.4474 3.52955 6.42594 4.10956 5.55712C4.68957 4.6883 5.51397 4.01114 6.4785 3.61127C7.44302 3.2114 8.50436 3.10677 9.52829 3.31062C10.5522 3.51448 11.4928 4.01766 12.231 4.75653C12.9692 5.4954 13.4719 6.43677 13.6756 7.46161C13.8793 8.48645 13.7747 9.54873 13.3752 10.5141C12.9757 11.4795 12.2991 12.3046 11.4311 12.8851C10.563 13.4657 9.5425 13.7755 8.4985 13.7755C8.36639 13.7755 8.23969 13.723 8.14628 13.6295C8.05286 13.536 8.00038 13.4092 8.00038 13.277C8.00038 13.1447 8.05286 13.0179 8.14628 12.9244C8.23969 12.8309 8.36639 12.7784 8.4985 12.7784L8.49917 12.7791Z" fill="#BF1515"/>
<path d="M8.50006 16.0027C9.98403 16.0027 11.4347 15.5623 12.6686 14.7371C13.9024 13.9119 14.8641 12.7391 15.432 11.3669C15.9999 9.99464 16.1485 8.48468 15.859 7.02794C15.5695 5.57119 14.8549 4.23309 13.8055 3.18283C12.7562 2.13258 11.4193 1.41735 9.96384 1.12758C8.50838 0.837817 6.99976 0.986535 5.62875 1.55493C4.25774 2.12332 3.08592 3.08586 2.26147 4.32083C1.43702 5.5558 0.996973 7.00773 0.996973 8.49301C0.996973 8.55849 0.984089 8.62332 0.959056 8.68381C0.934023 8.74429 0.897332 8.79925 0.851077 8.84555C0.804822 8.89185 0.74991 8.92857 0.689475 8.95362C0.629041 8.97868 0.564267 8.99158 0.498853 8.99158C0.433439 8.99158 0.368665 8.97868 0.30823 8.95362C0.247796 8.92857 0.192883 8.89185 0.146629 8.84555C0.100374 8.79925 0.0636825 8.74429 0.0386496 8.68381C0.0136167 8.62332 0.000732421 8.55849 0.000732422 8.49301C0.00346451 6.81253 0.503421 5.17051 1.43752 3.77411C2.37163 2.3777 3.69803 1.2895 5.24937 0.646772C6.80072 0.00404944 8.5075 -0.16439 10.1544 0.162706C11.8013 0.489801 13.3145 1.29778 14.5031 2.48469C15.6889 3.67434 16.4962 5.18888 16.823 6.83722C17.1498 8.48556 16.9815 10.1939 16.3394 11.7466C15.6972 13.2993 14.61 14.6269 13.2148 15.5618C11.8196 16.4967 10.1791 16.9971 8.50006 16.9999C8.36795 16.9999 8.24125 16.9473 8.14784 16.8538C8.05442 16.7603 8.00194 16.6335 8.00194 16.5013C8.00194 16.3691 8.05442 16.2423 8.14784 16.1488C8.24125 16.0553 8.36795 16.0027 8.50006 16.0027Z" fill="#BF1515"/>
</svg>
