<svg xmlns="http://www.w3.org/2000/svg" width="20.002" height="17.58" viewBox="0 0 20.002 17.58">
  <g id="cart" transform="translate(0 0)">
    <path id="Контур_26" data-name="Контур 26" d="M6.485,11.72H17.072a.584.584,0,0,0,.563-.425l2.344-8.2a.585.585,0,0,0-.563-.747H5.132L4.713.459A.586.586,0,0,0,4.141,0H.586a.586.586,0,1,0,0,1.172H3.671l2.116,9.522a1.757,1.757,0,0,0,.7,3.37H17.072a.586.586,0,1,0,0-1.172H6.485a.586.586,0,1,1,0-1.172Zm0,0" fill="#ffac58"/>
    <path id="Контур_27" data-name="Контур 27" d="M151,361.762A1.758,1.758,0,1,0,152.758,360,1.76,1.76,0,0,0,151,361.762Zm0,0" transform="translate(-145.101 -345.94)" fill="#ffac58"/>
    <path id="Контур_28" data-name="Контур 28" d="M362,361.762A1.758,1.758,0,1,0,363.762,360,1.76,1.76,0,0,0,362,361.762Zm0,0" transform="translate(-347.862 -345.94)" fill="#ffac58"/>
  </g>
</svg>
