<svg xmlns="http://www.w3.org/2000/svg" width="25.272" height="25.272" viewBox="0 0 25.272 25.272">
  <g id="click" transform="translate(0 0)">
    <path id="Контур_29" data-name="Контур 29" d="M0,262.523a.74.74,0,0,0,.508.672l4.433,1.462L6.4,269.09a.74.74,0,0,0,1.384.059l4.738-11.1a.741.741,0,0,0-.972-.972L.449,261.81a.741.741,0,0,0-.449.712Zm2.834-.12,7.607-3.246L7.2,266.764l-.965-2.925a.74.74,0,0,0-.471-.471Z" transform="translate(0 -244.327)" fill="#bf1515"/>
    <path id="Контур_30" data-name="Контур 30" d="M104.847,111.264a6.367,6.367,0,1,0-6.367-6.367.74.74,0,1,1-1.481,0,7.847,7.847,0,1,1,7.847,7.847.74.74,0,1,1,0-1.481Z" transform="translate(-92.213 -92.261)" fill="#bf1515"/>
    <path id="Контур_31" data-name="Контур 31" d="M12.635,23.791A11.154,11.154,0,1,0,1.481,12.637a.74.74,0,1,1-1.481,0A12.635,12.635,0,0,1,21.559,3.713a12.635,12.635,0,0,1-8.924,21.559.74.74,0,1,1,0-1.481Z" transform="translate(0)" fill="#bf1515"/>
  </g>
</svg>
